<svg width="12" height="12" viewBox="0 0 12 12" fill="none" xmlns="http://www.w3.org/2000/svg">
<g clip-path="url(#clip0)">
<path d="M4.90062 6.00986L0.228063 1.33715C-0.0760202 1.03321 -0.0760202 0.541783 0.228063 0.237843C0.532002 -0.0660973 1.02343 -0.0660973 1.32737 0.237843L6.00008 4.91055L10.6726 0.237843C10.9767 -0.0660973 11.468 -0.0660973 11.7719 0.237843C12.076 0.541783 12.076 1.03321 11.7719 1.33715L7.09938 6.00986L11.7719 10.6826C12.076 10.9865 12.076 11.4779 11.7719 11.7819C11.6205 11.9335 11.4213 12.0096 11.2223 12.0096C11.0233 12.0096 10.8243 11.9335 10.6726 11.7819L6.00008 7.10917L1.32737 11.7819C1.17576 11.9335 0.976737 12.0096 0.777717 12.0096C0.578696 12.0096 0.379677 11.9335 0.228063 11.7819C-0.0760202 11.4779 -0.0760202 10.9865 0.228063 10.6826L4.90062 6.00986Z" fill="white"/>
</g>
<defs>
<clipPath id="clip0">
<rect width="12" height="12" fill="white" transform="matrix(-1 0 0 1 12 0)"/>
</clipPath>
</defs>
</svg>
