<svg width="23" height="23" viewBox="0 0 23 23" fill="none" xmlns="http://www.w3.org/2000/svg">
<g clip-path="url(#clip0)">
<path d="M8.38542 16.8782V21.3229C8.38542 21.6334 8.58475 21.9085 8.87992 22.0062C8.95371 22.0302 9.02942 22.0417 9.10417 22.0417C9.32842 22.0417 9.54501 21.9363 9.68301 21.7484L12.283 18.2103L8.38542 16.8782Z" fill="#011C40"/>
<path d="M22.6972 0.133293C22.4768 -0.0229151 22.1874 -0.0439984 21.9478 0.0815433L0.385298 11.342C0.130381 11.4752 -0.0200777 11.7473 0.00100562 12.0339C0.0230473 12.3214 0.213756 12.5667 0.484964 12.6597L6.47934 14.7086L19.2453 3.79317L9.3668 15.6947L19.413 19.1284C19.4878 19.1533 19.5664 19.1668 19.6449 19.1668C19.7753 19.1668 19.9046 19.1313 20.0187 19.0623C20.2008 18.9511 20.3244 18.7643 20.356 18.5544L22.9914 0.82521C23.0307 0.556877 22.9176 0.29046 22.6972 0.133293Z" fill="#011C40"/>
</g>
<defs>
<clipPath id="clip0">
<rect width="23" height="23" fill="white"/>
</clipPath>
</defs>
</svg>
