<svg width="23" height="23" viewBox="0 0 23 23" fill="none" xmlns="http://www.w3.org/2000/svg">
<g clip-path="url(#clip0)">
<path d="M8.38544 16.8782V21.3229C8.38544 21.6334 8.58477 21.9085 8.87994 22.0062C8.95373 22.0302 9.02944 22.0417 9.10419 22.0417C9.32844 22.0417 9.54502 21.9363 9.68302 21.7484L12.283 18.2103L8.38544 16.8782Z" fill="white"/>
<path d="M22.6972 0.133293C22.4768 -0.0229151 22.1874 -0.0439984 21.9478 0.0815433L0.385305 11.342C0.130388 11.4752 -0.0200701 11.7473 0.00101325 12.0339C0.0230549 12.3214 0.213763 12.5667 0.484972 12.6597L6.47935 14.7086L19.2453 3.79317L9.36681 15.6947L19.413 19.1284C19.4878 19.1533 19.5664 19.1668 19.6449 19.1668C19.7753 19.1668 19.9047 19.1313 20.0187 19.0623C20.2008 18.9511 20.3244 18.7643 20.356 18.5544L22.9914 0.82521C23.0307 0.556877 22.9177 0.29046 22.6972 0.133293Z" fill="white"/>
</g>
<defs>
<clipPath id="clip0">
<rect width="23" height="23" fill="white"/>
</clipPath>
</defs>
</svg>
